# xmcd
#
# Track frame offsets: 
#        150
#        18634
#        31918
#        49266
#        68716
#        84578
#        97910
#        124293
#        145864
#        156410
#        177898
#        203899
#        225218
#        254414
#
# Disc length: 4376 seconds
#
# Revision: 1
# Processed by: cddbd v1.5.1PL2 Copyright (c) Steve Scherf et al.
# Submitted via: ExactAudioCopy v0.90b4
#
DISCID=b911160e
DTITLE=Various Artist - Capsule Presents Supersonic Treats From The City Of B
DTITLE=irmingham
DYEAR=2004
DGENRE=Electronic
TTITLE0=Fortdax - Like Cream Inside Your Spine
TTITLE1=Dollboy - Juicyfruit
TTITLE2=Maps and Diagrams - Untitled
TTITLE3=Deaf Center - City
TTITLE4=Roboti Nu Se Pot Ruga - Flori Crsecand, Mere Muscate
TTITLE5=Mighty Math - Neon Heart Cowboy
TTITLE6=D_rradio - No More Reaction
TTITLE7=Goldmund - My Neighbourhood
TTITLE8=Homes and Gardens - The Long Term Use Of Cetirizine Hydrochlorid
TTITLE8=e
TTITLE9=Sir Real - Dark Destroyer
TTITLE10=Sol_Dat - Profundo Rosso
TTITLE11=Arcade - Jplug
TTITLE12=Khonnor - Megan's Present
TTITLE13=Data
EXTD=
EXTT0=
EXTT1=
EXTT2=
EXTT3=
EXTT4=
EXTT5=
EXTT6=
EXTT7=
EXTT8=
EXTT9=
EXTT10=
EXTT11=
EXTT12=
EXTT13=
PLAYORDER=
